PathFileType	4	(X/Y/Z)	/Users/itak/Documents/Research/Walk-IL/dataset/trc/00550_00009.trc
DataRate	CameraRate	NumFrames	NumMarkers	Units	OrigDataRate	OrigDataStartFrame	OrigNumFrames
100.000000	100.000000	4	53	mm	100.000000	203	543
Frame#	Time	RPSI			LPSI			L3			STRN			T10			C7			CLAV			RBAK			LBAK			LSHO			LUPA			LAEL			LAOL			LWTS			LWPS			LFRA			LIFD			LHPS			LHTS			RSHO			RUPA			RAEL			RAOL			RWTS			RWPS			RFRA			RIFD			RHTS			RHPS			RBHD			LFHD			RFHD			LBHD			LHIP			RHIP			RASI			LASI			LKNE			LTHI			LANK			LTIP			LTOE			LMT1			LMT5			LHEE			RKNE			RTHI			RANK			RTIP			RTOE			RMT1			RMT5			RHEE			
		X1	Y1	Z1	X2	Y2	Z2	X3	Y3	Z3	X4	Y4	Z4	X5	Y5	Z5	X6	Y6	Z6	X7	Y7	Z7	X8	Y8	Z8	X9	Y9	Z9	X10	Y10	Z10	X11	Y11	Z11	X12	Y12	Z12	X13	Y13	Z13	X14	Y14	Z14	X15	Y15	Z15	X16	Y16	Z16	X17	Y17	Z17	X18	Y18	Z18	X19	Y19	Z19	X20	Y20	Z20	X21	Y21	Z21	X22	Y22	Z22	X23	Y23	Z23	X24	Y24	Z24	X25	Y25	Z25	X26	Y26	Z26	X27	Y27	Z27	X28	Y28	Z28	X29	Y29	Z29	X30	Y30	Z30	X31	Y31	Z31	X32	Y32	Z32	X33	Y33	Z33	X34	Y34	Z34	X35	Y35	Z35	X36	Y36	Z36	X37	Y37	Z37	X38	Y38	Z38	X39	Y39	Z39	X40	Y40	Z40	X41	Y41	Z41	X42	Y42	Z42	X43	Y43	Z43	X44	Y44	Z44	X45	Y45	Z45	X46	Y46	Z46	X47	Y47	Z47	X48	Y48	Z48	X49	Y49	Z49	X50	Y50	Z50	X51	Y51	Z51	X52	Y52	Z52	X53	Y53	Z53	

204	2.03	-663.4707641601562	987.1090698242188	298.9122009277344	-656.7994995117188	988.79931640625	164.9160614013672	-653.858154296875	1087.488403320312	220.7089691162109	-402.1926879882812	1258.608032226562	220.455810546875	-651.8156127929688	1212.03759765625	214.72705078125	-584.0997314453125	1481.370239257812	232.5699005126953	-414.4600219726562	1370.859252929688	223.6614837646484	-664.0921630859375	1360.171508789062	314.3168029785156	-618.7377319335938	1433.123168945312	137.6737518310547	-515.692626953125	1454.748168945312	60.68815612792969	-530.9747314453125	1332.44384765625	-25.92634582519531	-526.7505493164062	1109.130126953125	-48.84331512451172	-619.1495971679688	1107.959838867188	-6.78880500793457	-453.7358093261719	861.7465209960938	8.390372276306152	-491.1546325683594	840.8876953125	-67.53054809570312	-508.6205444335938	1021.493103027344	-53.38211822509766	-464.2437133789062	691.326904296875	2.763867855072021	-486.8616027832031	780.7861328125	-58.28958129882812	-439.6728820800781	783.4944458007812	-8.807332038879395	-529.8304443359375	1436.3759765625	388.5654602050781	-555.8678588867188	1372.464233398438	454.5457153320312	-591.0244750976562	1084.739013671875	496.7030334472656	-645.72509765625	1073.69482421875	465.21435546875	-485.491455078125	847.013671875	470.5219421386719	-537.0507202148438	834.5237426757812	534.0489501953125	-588.23388671875	1028.671997070312	504.6845092773438	-500.1958618164062	672.8336791992188	480.1538391113281	-474.2950439453125	751.2949829101562	488.0919494628906	-531.9851684570312	758.2172241210938	532.2581176757812	-483.5869750976562	1655.441650390625	305.3695983886719	-323.7005920410156	1655.214599609375	172.8615570068359	-343.3660888671875	1653.203735351562	315.7302856445312	-453.9107666015625	1654.864013671875	142.2362670898438	-539.5048828125	903.169677734375	33.73220062255859	-529.8308715820312	923.2017211914062	416.1639099121094	-448.9703674316406	952.1246337890625	354.5970764160156	-455.5401000976562	923.4673461914062	80.70697021484375	-614.7930908203125	467.24951171875	100.8067855834961	-571.4860229492188	628.876708984375	65.21537780761719	-894.3790893554688	65.57828521728516	118.7176055908203	-783.1630859375	269.4531860351562	101.3626708984375	-692.4796142578125	36.10501861572266	177.0892333984375	-758.7454223632812	49.75972366333008	209.6609497070312	-780.7286987304688	33.10347366333008	105.5385818481445	-957.6177368164062	100.5466232299805	171.0088500976562	-356.4236145019531	509.7511596679688	363.3162231445312	-449.76220703125	783.0036010742188	415.2395935058594	-399.1110229492188	36.88862991333008	344.5662536621094	-333.0067138671875	362.8839111328125	348.5079956054688	-179.9442291259766	42.10655975341797	297.7471618652344	-244.9081878662109	42.36626434326172	259.3214721679688	-265.625732421875	39.13873291015625	361.9684448242188	-454.1505432128906	32.52832412719727	288.4171752929688	
205	2.04	-655.0659790039062	987.880859375	300.9280395507812	-648.821533203125	989.3667602539062	166.9093780517578	-645.6818237304688	1088.1982421875	222.6216430664062	-394.6000671386719	1259.689086914062	221.8918609619141	-644.0108032226562	1212.7314453125	216.6002655029297	-576.8631591796875	1482.191528320312	234.3166351318359	-407.1474609375	1371.886840820312	225.1679382324219	-656.5352783203125	1360.839111328125	316.19580078125	-611.56298828125	1433.92578125	139.5066375732422	-508.6161499023438	1455.827392578125	62.34751510620117	-524.0562744140625	1333.649291992188	-24.35733032226562	-520.3896484375	1110.445190429688	-47.70748901367188	-612.6633911132812	1109.391967773438	-5.362955093383789	-447.6255187988281	862.7957763671875	8.636197090148926	-485.5132446289062	842.1884155273438	-67.16078948974609	-502.4667663574219	1022.762878417969	-52.52413940429688	-458.5325317382812	692.4315185546875	2.807848215103149	-481.2385559082031	782.0350952148438	-58.02149963378906	-433.8279418945312	784.5478515625	-8.735739707946777	-522.3063354492188	1437.2890625	390.2345581054688	-548.135009765625	1373.368408203125	456.245361328125	-582.6427001953125	1085.494750976562	498.3424987792969	-637.2823486328125	1074.35693359375	466.9495849609375	-476.4161682128906	848.1923217773438	471.511962890625	-527.7648315429688	835.4213256835938	535.1502075195312	-579.6773071289062	1029.532592773438	506.2434387207031	-490.5309448242188	673.9412231445312	480.8980407714844	-464.8022155761719	752.4571533203125	488.9810485839844	-522.4135131835938	759.1329345703125	533.2246704101562	-476.0970153808594	1656.4287109375	306.9884033203125	-316.4094848632812	1656.071899414062	174.2554779052734	-335.9190368652344	1654.036987304688	317.1353454589844	-446.67919921875	1655.86376953125	143.8036956787109	-532.0438232421875	903.8377075195312	35.24391937255859	-521.021240234375	923.9302978515625	417.6361999511719	-440.2456359863281	953.054443359375	355.9450988769531	-447.6776123046875	924.421630859375	82.13927459716797	-604.2451782226562	467.0182189941406	100.8425750732422	-561.4268188476562	628.8618774414062	66.28355407714844	-892.2857055664062	69.93996429443359	117.6899032592773	-776.5403442382812	272.2101135253906	100.8539428710938	-692.1771850585938	36.04159545898438	176.9141387939453	-757.6047973632812	50.80450820922852	209.3067169189453	-779.7005615234375	33.55170440673828	105.531494140625	-954.2020263671875	107.173713684082	169.8955993652344	-350.5504150390625	509.2256469726562	363.5896911621094	-441.7395324707031	783.1033935546875	416.3091735839844	-398.9656066894531	37.12997055053711	344.4312744140625	-328.6517333984375	362.1083374023438	348.5400085449219	-179.6662750244141	41.52864074707031	297.4286499023438	-244.7476501464844	41.98152923583984	259.1863098144531	-265.4553833007812	39.26349258422852	361.8333129882812	-454.0753479003906	32.67656326293945	288.4269409179688	
206	2.05	-646.6302490234375	988.7191772460938	302.9633178710938	-640.8784790039062	990.0079956054688	168.9385223388672	-637.4867553710938	1088.957275390625	224.5946350097656	-387.0219421386719	1260.843872070312	223.2869262695312	-636.1697387695312	1213.463989257812	218.50341796875	-569.6842651367188	1483.060180664062	236.0850830078125	-399.8638610839844	1372.997680664062	226.6471252441406	-648.9838256835938	1361.540893554688	318.1065368652344	-604.454833984375	1434.77001953125	141.3746490478516	-501.6423950195312	1456.977661132812	64.01261901855469	-517.221923828125	1334.93505859375	-22.78863525390625	-514.0084228515625	1111.8330078125	-46.5857048034668	-606.1832885742188	1110.881225585938	-4.02224588394165	-441.4612121582031	863.9506225585938	8.928035736083984	-479.7871704101562	843.5775146484375	-66.78934478759766	-496.2689819335938	1024.115966796875	-51.66182327270508	-452.7868347167969	693.6145629882812	2.902885437011719	-475.4988708496094	783.3712158203125	-57.71041488647461	-427.9253234863281	785.704345703125	-8.601876258850098	-514.8014526367188	1438.257568359375	391.9060668945312	-540.4078979492188	1374.34326171875	457.9576721191406	-574.271240234375	1086.348022460938	500.0319213867188	-628.9176635742188	1075.075927734375	468.8436279296875	-467.1461791992188	849.5341186523438	472.5275573730469	-518.2889404296875	836.434814453125	536.2623291015625	-571.0202026367188	1030.50390625	507.8910827636719	-480.5147094726562	675.2064819335938	481.6401977539062	-455.0229797363281	753.81787109375	489.8569641113281	-512.5691528320312	760.166748046875	534.205810546875	-468.6576232910156	1657.505737304688	308.5830078125	-309.1661071777344	1656.981079101562	175.611572265625	-328.5430603027344	1654.939453125	318.5156860351562	-439.5171813964844	1656.94091796875	145.347412109375	-524.5153198242188	904.5589599609375	36.80489349365234	-512.239990234375	924.68896484375	419.164794921875	-431.5420227050781	953.943115234375	357.2662658691406	-439.8688354492188	925.435302734375	83.55092620849609	-593.1242065429688	466.7004699707031	100.6856231689453	-551.1574096679688	628.9249267578125	67.18792724609375	-889.8472900390625	74.68275451660156	116.5947418212891	-769.3945922851562	275.0548706054688	100.2221755981445	-691.9301147460938	35.97290802001953	176.7536773681641	-756.39892578125	51.90008926391602	208.9959411621094	-778.5331420898438	34.12871170043945	105.4947052001953	-950.251708984375	114.244010925293	168.6987609863281	-345.02490234375	508.6200561523438	363.9060668945312	-433.8947448730469	783.1271362304688	417.5328063964844	-398.8333129882812	37.32117080688477	344.2645263671875	-324.5980834960938	361.29638671875	348.5950927734375	-179.4380950927734	41.1500358581543	297.1216430664062	-244.6538696289062	41.69447326660156	259.0374755859375	-265.3331298828125	39.38293075561523	361.6777038574219	-454.0394287109375	32.7983512878418	288.4209594726562	
207	2.06	-638.2159423828125	989.6107788085938	304.9868469238281	-632.9857788085938	990.7119140625	170.9635162353516	-629.3012084960938	1089.748779296875	226.5973052978516	-379.4714660644531	1262.0537109375	224.6304931640625	-628.3273315429688	1214.228149414062	220.4307403564453	-562.562255859375	1483.964599609375	237.8726806640625	-392.6129150390625	1374.172729492188	228.0853118896484	-641.4404907226562	1362.269287109375	320.051025390625	-597.4170532226562	1435.642211914062	143.2735595703125	-494.7824096679688	1458.185546875	65.67904663085938	-510.5077819824219	1336.291259765625	-21.22608184814453	-507.6387329101562	1113.283813476562	-45.48015975952148	-599.72705078125	1112.411010742188	-2.73896312713623	-435.2558898925781	865.1995239257812	9.268138885498047	-473.9833679199219	845.0474243164062	-66.41935729980469	-490.0440063476562	1025.548583984375	-50.79708480834961	-447.0059509277344	694.86962890625	3.034088134765625	-469.6498107910156	784.78955078125	-57.36095428466797	-421.9590759277344	786.9584350585938	-8.418402671813965	-507.3074340820312	1439.26318359375	393.5694885253906	-532.67578125	1375.370849609375	459.6766967773438	-565.9053344726562	1087.297241210938	501.7758178710938	-620.617919921875	1075.842407226562	470.8969116210938	-457.689697265625	851.0169067382812	473.5523986816406	-508.6236877441406	837.5457763671875	537.3895263671875	-562.2377319335938	1031.572387695312	509.6457214355469	-470.1831359863281	676.6090087890625	482.3854064941406	-444.9815673828125	755.3585815429688	490.7023315429688	-502.4634094238281	761.3041381835938	535.2047729492188	-461.2933654785156	1658.652587890625	310.1495666503906	-301.9905090332031	1657.939819335938	176.9261169433594	-321.2506408691406	1655.909057617188	319.8677978515625	-432.4420776367188	1658.080932617188	146.8657684326172	-516.9052734375	905.3169555664062	38.40044021606445	-503.5536193847656	925.469970703125	420.7327270507812	-422.9066467285156	954.800048828125	358.5837097167969	-432.1218566894531	926.4859619140625	84.96327972412109	-581.4424438476562	466.3016357421875	100.3294143676758	-540.7054443359375	629.067138671875	67.913818359375	-887.0001831054688	79.85243225097656	115.4284591674805	-761.6978149414062	277.9790344238281	99.47292327880859	-691.7160034179688	35.87499237060547	176.6058807373047	-755.1056518554688	53.05489730834961	208.7010192871094	-777.2081298828125	34.87268829345703	105.3989028930664	-945.7249145507812	121.7704925537109	167.4078063964844	-339.8189392089844	507.9786987304688	364.2742614746094	-426.2365112304688	783.126953125	418.8326110839844	-398.7175903320312	37.46188354492188	344.0917358398438	-320.8302917480469	360.4732055664062	348.6883239746094	-179.2397308349609	40.89933013916016	296.8335571289062	-244.6084289550781	41.47689819335938	258.8897705078125	-265.23974609375	39.48290252685547	361.5233154296875	-454.0303955078125	32.90092849731445	288.4061889648438	
